<svg width="36" height="36" viewBox="0 0 36 36" fill="none" xmlns="http://www.w3.org/2000/svg">
<path d="M10.6473 0.950684H25.3526C30.9547 0.950684 35.5063 5.50233 35.5063 11.1044V25.8097C35.5063 28.5026 34.4366 31.0852 32.5324 32.9894C30.6282 34.8936 28.0456 35.9633 25.3526 35.9633H10.6473C5.0453 35.9633 0.493652 31.4117 0.493652 25.8097V11.1044C0.493652 8.41144 1.56341 5.82881 3.46759 3.92463C5.37178 2.02044 7.9544 0.950684 10.6473 0.950684ZM10.2972 4.45195C8.62573 4.45195 7.02272 5.11594 5.84081 6.29785C4.65891 7.47975 3.99492 9.08276 3.99492 10.7542V26.1598C3.99492 29.6436 6.81344 32.4621 10.2972 32.4621H25.7028C27.3742 32.4621 28.9773 31.7981 30.1592 30.6162C31.3411 29.4343 32.0051 27.8313 32.0051 26.1598V10.7542C32.0051 7.27047 29.1865 4.45195 25.7028 4.45195H10.2972ZM27.1908 7.0779C27.7712 7.0779 28.3278 7.30845 28.7382 7.71884C29.1486 8.12922 29.3791 8.68582 29.3791 9.26619C29.3791 9.84656 29.1486 10.4032 28.7382 10.8135C28.3278 11.2239 27.7712 11.4545 27.1908 11.4545C26.6104 11.4545 26.0538 11.2239 25.6435 10.8135C25.2331 10.4032 25.0025 9.84656 25.0025 9.26619C25.0025 8.68582 25.2331 8.12922 25.6435 7.71884C26.0538 7.30845 26.6104 7.0779 27.1908 7.0779ZM18 9.70385C20.3215 9.70385 22.5479 10.6261 24.1894 12.2676C25.8309 13.9091 26.7532 16.1355 26.7532 18.457C26.7532 20.7785 25.8309 23.0049 24.1894 24.6464C22.5479 26.288 20.3215 27.2102 18 27.2102C15.6785 27.2102 13.4521 26.288 11.8106 24.6464C10.169 23.0049 9.24682 20.7785 9.24682 18.457C9.24682 16.1355 10.169 13.9091 11.8106 12.2676C13.4521 10.6261 15.6785 9.70385 18 9.70385ZM18 13.2051C16.6071 13.2051 15.2713 13.7584 14.2863 14.7434C13.3014 15.7283 12.7481 17.0641 12.7481 18.457C12.7481 19.8499 13.3014 21.1857 14.2863 22.1707C15.2713 23.1556 16.6071 23.7089 18 23.7089C19.3929 23.7089 20.7287 23.1556 21.7136 22.1707C22.6986 21.1857 23.2519 19.8499 23.2519 18.457C23.2519 17.0641 22.6986 15.7283 21.7136 14.7434C20.7287 13.7584 19.3929 13.2051 18 13.2051Z" fill="white"/>
</svg>
