<svg width="200" height="30" viewBox="0 0 200 30" fill="none" xmlns="http://www.w3.org/2000/svg">
<path d="M0.4 29.457V1.45703H4.56V25.297H16.62V29.457H0.4ZM31.8375 29.977C29.9442 29.977 28.1642 29.6037 26.4975 28.857C24.8308 28.097 23.3642 27.0504 22.0975 25.717C20.8308 24.3837 19.8375 22.8437 19.1175 21.097C18.3975 19.337 18.0375 17.457 18.0375 15.457C18.0375 13.457 18.3975 11.5837 19.1175 9.83703C19.8375 8.07703 20.8308 6.53036 22.0975 5.19703C23.3642 3.8637 24.8308 2.8237 26.4975 2.07703C28.1642 1.31703 29.9442 0.937029 31.8375 0.937029C33.7442 0.937029 35.5308 1.31703 37.1975 2.07703C38.8642 2.8237 40.3308 3.8637 41.5975 5.19703C42.8642 6.53036 43.8508 8.07703 44.5575 9.83703C45.2775 11.5837 45.6375 13.457 45.6375 15.457C45.6375 17.457 45.2775 19.337 44.5575 21.097C43.8508 22.8437 42.8642 24.3837 41.5975 25.717C40.3308 27.0504 38.8642 28.097 37.1975 28.857C35.5308 29.6037 33.7442 29.977 31.8375 29.977ZM31.8375 25.817C33.1708 25.817 34.4175 25.5437 35.5775 24.997C36.7375 24.4504 37.7575 23.7037 38.6375 22.757C39.5308 21.797 40.2242 20.697 40.7175 19.457C41.2242 18.2037 41.4775 16.8704 41.4775 15.457C41.4775 14.0437 41.2242 12.7104 40.7175 11.457C40.2242 10.2037 39.5308 9.1037 38.6375 8.15703C37.7575 7.19703 36.7375 6.45036 35.5775 5.91703C34.4175 5.37036 33.1708 5.09703 31.8375 5.09703C30.5042 5.09703 29.2575 5.37036 28.0975 5.91703C26.9375 6.4637 25.9108 7.21703 25.0175 8.17703C24.1375 9.1237 23.4442 10.2237 22.9375 11.477C22.4442 12.717 22.1975 14.0437 22.1975 15.457C22.1975 16.8837 22.4442 18.2237 22.9375 19.477C23.4442 20.717 24.1375 21.817 25.0175 22.777C25.9108 23.7237 26.9375 24.4704 28.0975 25.017C29.2575 25.5504 30.5042 25.817 31.8375 25.817ZM62.3253 29.977C60.3786 29.977 58.5653 29.6037 56.8853 28.857C55.2186 28.097 53.7586 27.0504 52.5053 25.717C51.2653 24.3704 50.292 22.817 49.5853 21.057C48.892 19.297 48.5453 17.4237 48.5453 15.437C48.5453 13.3437 48.9186 11.417 49.6653 9.65703C50.412 7.89703 51.432 6.37036 52.7253 5.07703C54.0186 3.77036 55.492 2.75703 57.1453 2.03703C58.812 1.31703 60.5586 0.95703 62.3853 0.95703C64.452 0.95703 66.4386 1.43703 68.3453 2.39703C70.252 3.35703 71.912 4.79703 73.3253 6.71703L69.6053 8.73703C68.6453 7.53703 67.5253 6.63036 66.2453 6.01703C64.9786 5.4037 63.6786 5.09703 62.3453 5.09703C61.052 5.09703 59.8253 5.3637 58.6653 5.89703C57.5053 6.41703 56.4786 7.15036 55.5853 8.09703C54.692 9.03036 53.9853 10.1304 53.4653 11.397C52.9586 12.6504 52.7053 14.017 52.7053 15.497C52.7053 16.9237 52.952 18.2637 53.4453 19.517C53.952 20.7704 54.6453 21.8704 55.5253 22.817C56.4186 23.7504 57.4453 24.4837 58.6053 25.017C59.7786 25.5504 61.032 25.817 62.3653 25.817C63.352 25.817 64.2986 25.657 65.2053 25.337C66.112 25.017 66.952 24.5637 67.7253 23.977C68.512 23.377 69.1986 22.6637 69.7853 21.837C70.372 21.0104 70.8386 20.0904 71.1853 19.077H65.2453V15.397H76.0653C76.092 17.397 75.7453 19.277 75.0253 21.037C74.3186 22.797 73.332 24.3504 72.0653 25.697C70.812 27.0304 69.352 28.077 67.6853 28.837C66.0186 29.597 64.232 29.977 62.3253 29.977ZM92.775 29.977C90.8817 29.977 89.1017 29.6037 87.435 28.857C85.7683 28.097 84.3017 27.0504 83.035 25.717C81.7683 24.3837 80.775 22.8437 80.055 21.097C79.335 19.337 78.975 17.457 78.975 15.457C78.975 13.457 79.335 11.5837 80.055 9.83703C80.775 8.07703 81.7683 6.53036 83.035 5.19703C84.3017 3.8637 85.7683 2.8237 87.435 2.07703C89.1017 1.31703 90.8817 0.937029 92.775 0.937029C94.6817 0.937029 96.4683 1.31703 98.135 2.07703C99.8017 2.8237 101.268 3.8637 102.535 5.19703C103.802 6.53036 104.788 8.07703 105.495 9.83703C106.215 11.5837 106.575 13.457 106.575 15.457C106.575 17.457 106.215 19.337 105.495 21.097C104.788 22.8437 103.802 24.3837 102.535 25.717C101.268 27.0504 99.8017 28.097 98.135 28.857C96.4683 29.6037 94.6817 29.977 92.775 29.977ZM92.775 25.817C94.1083 25.817 95.355 25.5437 96.515 24.997C97.675 24.4504 98.695 23.7037 99.575 22.757C100.468 21.797 101.162 20.697 101.655 19.457C102.162 18.2037 102.415 16.8704 102.415 15.457C102.415 14.0437 102.162 12.7104 101.655 11.457C101.162 10.2037 100.468 9.1037 99.575 8.15703C98.695 7.19703 97.675 6.45036 96.515 5.91703C95.355 5.37036 94.1083 5.09703 92.775 5.09703C91.4417 5.09703 90.195 5.37036 89.035 5.91703C87.875 6.4637 86.8483 7.21703 85.955 8.17703C85.075 9.1237 84.3817 10.2237 83.875 11.477C83.3817 12.717 83.135 14.0437 83.135 15.457C83.135 16.8837 83.3817 18.2237 83.875 19.477C84.3817 20.717 85.075 21.817 85.955 22.777C86.8483 23.7237 87.875 24.4704 89.035 25.017C90.195 25.5504 91.4417 25.817 92.775 25.817ZM127.181 1.45703H131.341V29.457H127.181V16.537H114.521V29.457H110.361V1.45703H114.521V12.377H127.181V1.45703ZM136.142 29.457V1.45703H153.522V5.61703H140.302V12.377H150.942V16.537H140.302V25.297H153.522V29.457H136.142ZM158.095 29.457V1.45703H168.395C169.915 1.45703 171.282 1.83036 172.495 2.57703C173.709 3.3237 174.669 4.33036 175.375 5.59703C176.095 6.85036 176.455 8.25036 176.455 9.79703C176.455 11.1037 176.209 12.297 175.715 13.377C175.235 14.457 174.555 15.377 173.675 16.137C172.809 16.897 171.815 17.4437 170.695 17.777L177.455 29.457H172.635L166.075 18.157H162.255V29.457H158.095ZM162.255 13.997H167.955C168.755 13.997 169.482 13.797 170.135 13.397C170.802 12.997 171.329 12.4637 171.715 11.797C172.102 11.1304 172.295 10.377 172.295 9.53703C172.295 8.69703 172.102 7.9437 171.715 7.27703C171.329 6.59703 170.802 6.0637 170.135 5.67703C169.482 5.27703 168.755 5.07703 167.955 5.07703H162.255V13.997ZM181.65 29.457V1.45703H199.03V5.61703H185.81V12.377H196.45V16.537H185.81V25.297H199.03V29.457H181.65Z" fill="white"/>
</svg>
