<svg width="200" height="31" viewBox="0 0 200 31" fill="none" xmlns="http://www.w3.org/2000/svg">
<path d="M0.4 29.5V1.5H4.56V25.34H16.62V29.5H0.4ZM31.8375 30.02C29.9442 30.02 28.1642 29.6467 26.4975 28.9C24.8308 28.14 23.3642 27.0933 22.0975 25.76C20.8308 24.4267 19.8375 22.8867 19.1175 21.14C18.3975 19.38 18.0375 17.5 18.0375 15.5C18.0375 13.5 18.3975 11.6267 19.1175 9.88C19.8375 8.12 20.8308 6.57333 22.0975 5.24C23.3642 3.90667 24.8308 2.86667 26.4975 2.12C28.1642 1.36 29.9442 0.979998 31.8375 0.979998C33.7442 0.979998 35.5308 1.36 37.1975 2.12C38.8642 2.86667 40.3308 3.90667 41.5975 5.24C42.8642 6.57333 43.8508 8.12 44.5575 9.88C45.2775 11.6267 45.6375 13.5 45.6375 15.5C45.6375 17.5 45.2775 19.38 44.5575 21.14C43.8508 22.8867 42.8642 24.4267 41.5975 25.76C40.3308 27.0933 38.8642 28.14 37.1975 28.9C35.5308 29.6467 33.7442 30.02 31.8375 30.02ZM31.8375 25.86C33.1708 25.86 34.4175 25.5867 35.5775 25.04C36.7375 24.4933 37.7575 23.7467 38.6375 22.8C39.5308 21.84 40.2242 20.74 40.7175 19.5C41.2242 18.2467 41.4775 16.9133 41.4775 15.5C41.4775 14.0867 41.2242 12.7533 40.7175 11.5C40.2242 10.2467 39.5308 9.14667 38.6375 8.2C37.7575 7.24 36.7375 6.49333 35.5775 5.96C34.4175 5.41333 33.1708 5.14 31.8375 5.14C30.5042 5.14 29.2575 5.41333 28.0975 5.96C26.9375 6.50667 25.9108 7.26 25.0175 8.22C24.1375 9.16667 23.4442 10.2667 22.9375 11.52C22.4442 12.76 22.1975 14.0867 22.1975 15.5C22.1975 16.9267 22.4442 18.2667 22.9375 19.52C23.4442 20.76 24.1375 21.86 25.0175 22.82C25.9108 23.7667 26.9375 24.5133 28.0975 25.06C29.2575 25.5933 30.5042 25.86 31.8375 25.86ZM62.3253 30.02C60.3786 30.02 58.5653 29.6467 56.8853 28.9C55.2186 28.14 53.7586 27.0933 52.5053 25.76C51.2653 24.4133 50.292 22.86 49.5853 21.1C48.892 19.34 48.5453 17.4667 48.5453 15.48C48.5453 13.3867 48.9186 11.46 49.6653 9.7C50.412 7.94 51.432 6.41333 52.7253 5.12C54.0186 3.81333 55.492 2.8 57.1453 2.08C58.812 1.36 60.5586 0.999999 62.3853 0.999999C64.452 0.999999 66.4386 1.48 68.3453 2.44C70.252 3.4 71.912 4.84 73.3253 6.76L69.6053 8.78C68.6453 7.58 67.5253 6.67333 66.2453 6.06C64.9786 5.44667 63.6786 5.14 62.3453 5.14C61.052 5.14 59.8253 5.40667 58.6653 5.94C57.5053 6.46 56.4786 7.19333 55.5853 8.14C54.692 9.07333 53.9853 10.1733 53.4653 11.44C52.9586 12.6933 52.7053 14.06 52.7053 15.54C52.7053 16.9667 52.952 18.3067 53.4453 19.56C53.952 20.8133 54.6453 21.9133 55.5253 22.86C56.4186 23.7933 57.4453 24.5267 58.6053 25.06C59.7786 25.5933 61.032 25.86 62.3653 25.86C63.352 25.86 64.2986 25.7 65.2053 25.38C66.112 25.06 66.952 24.6067 67.7253 24.02C68.512 23.42 69.1986 22.7067 69.7853 21.88C70.372 21.0533 70.8386 20.1333 71.1853 19.12H65.2453V15.44H76.0653C76.092 17.44 75.7453 19.32 75.0253 21.08C74.3186 22.84 73.332 24.3933 72.0653 25.74C70.812 27.0733 69.352 28.12 67.6853 28.88C66.0186 29.64 64.232 30.02 62.3253 30.02ZM92.775 30.02C90.8817 30.02 89.1017 29.6467 87.435 28.9C85.7683 28.14 84.3017 27.0933 83.035 25.76C81.7683 24.4267 80.775 22.8867 80.055 21.14C79.335 19.38 78.975 17.5 78.975 15.5C78.975 13.5 79.335 11.6267 80.055 9.88C80.775 8.12 81.7683 6.57333 83.035 5.24C84.3017 3.90667 85.7683 2.86667 87.435 2.12C89.1017 1.36 90.8817 0.979998 92.775 0.979998C94.6817 0.979998 96.4683 1.36 98.135 2.12C99.8017 2.86667 101.268 3.90667 102.535 5.24C103.802 6.57333 104.788 8.12 105.495 9.88C106.215 11.6267 106.575 13.5 106.575 15.5C106.575 17.5 106.215 19.38 105.495 21.14C104.788 22.8867 103.802 24.4267 102.535 25.76C101.268 27.0933 99.8017 28.14 98.135 28.9C96.4683 29.6467 94.6817 30.02 92.775 30.02ZM92.775 25.86C94.1083 25.86 95.355 25.5867 96.515 25.04C97.675 24.4933 98.695 23.7467 99.575 22.8C100.468 21.84 101.162 20.74 101.655 19.5C102.162 18.2467 102.415 16.9133 102.415 15.5C102.415 14.0867 102.162 12.7533 101.655 11.5C101.162 10.2467 100.468 9.14667 99.575 8.2C98.695 7.24 97.675 6.49333 96.515 5.96C95.355 5.41333 94.1083 5.14 92.775 5.14C91.4417 5.14 90.195 5.41333 89.035 5.96C87.875 6.50667 86.8483 7.26 85.955 8.22C85.075 9.16667 84.3817 10.2667 83.875 11.52C83.3817 12.76 83.135 14.0867 83.135 15.5C83.135 16.9267 83.3817 18.2667 83.875 19.52C84.3817 20.76 85.075 21.86 85.955 22.82C86.8483 23.7667 87.875 24.5133 89.035 25.06C90.195 25.5933 91.4417 25.86 92.775 25.86Z" fill="black"/>
<path d="M127.181 1.5H131.341V29.5H127.181V16.58H114.521V29.5H110.361V1.5H114.521V12.42H127.181V1.5ZM136.142 29.5V1.5H153.522V5.66H140.302V12.42H150.942V16.58H140.302V25.34H153.522V29.5H136.142ZM158.095 29.5V1.5H168.395C169.915 1.5 171.282 1.87333 172.495 2.62C173.709 3.36666 174.669 4.37333 175.375 5.64C176.095 6.89333 176.455 8.29333 176.455 9.84C176.455 11.1467 176.209 12.34 175.715 13.42C175.235 14.5 174.555 15.42 173.675 16.18C172.809 16.94 171.815 17.4867 170.695 17.82L177.455 29.5H172.635L166.075 18.2H162.255V29.5H158.095ZM162.255 14.04H167.955C168.755 14.04 169.482 13.84 170.135 13.44C170.802 13.04 171.329 12.5067 171.715 11.84C172.102 11.1733 172.295 10.42 172.295 9.58C172.295 8.74 172.102 7.98667 171.715 7.32C171.329 6.64 170.802 6.10667 170.135 5.72C169.482 5.32 168.755 5.12 167.955 5.12H162.255V14.04ZM181.65 29.5V1.5H199.03V5.66H185.81V12.42H196.45V16.58H185.81V25.34H199.03V29.5H181.65Z" fill="#836448"/>
</svg>
